<svg viewBox="0 0 200 200" width="200" height="200" xmlns="http://www.w3.org/2000/svg">
          <defs>
            <radialGradient id="strawGrad" cx="35%" cy="30%" r="70%">
              <stop offset="0%" stop-color="#FF5252"/>
              <stop offset="65%" stop-color="#E53935"/>
              <stop offset="100%" stop-color="#B71C1C"/>
            </radialGradient>
            <linearGradient id="calyxGreen" x1="0%" y1="0%" x2="100%" y2="100%">
              <stop offset="0%" stop-color="#81C784"/>
              <stop offset="100%" stop-color="#2E7D32"/>
            </linearGradient>
            <filter id="shadow" x="-10%" y="-10%" width="130%" height="130%">
              <feDropShadow dx="0" dy="6" stdDeviation="4" flood-opacity="0.15"/>
            </filter>
          </defs>
          <path d="M100 42 C98 28 103 18 108 14" stroke="#5D4037" stroke-width="4.5" stroke-linecap="round" fill="none"/>
          <path d="M100 58 C68 58 48 82 48 114 C48 148 82 178 97 188 C99 190 101 190 103 188 C118 178 152 148 152 114 C152 82 132 58 100 58 Z" fill="url(#strawGrad)" filter="url(#shadow)"/>
          <path d="M100 48 L100 66 M100 48 C90 56 75 58 60 62 C72 68 84 66 90 70 M100 48 C110 56 125 58 140 62 C128 68 116 66 110 70 M100 48 C88 40 76 42 68 45 C80 50 92 50 96 56 M100 48 C112 40 124 42 132 45 C120 50 108 50 104 56" fill="url(#calyxGreen)" stroke="url(#calyxGreen)" stroke-width="12" stroke-linejoin="round" stroke-linecap="round"/>
          <ellipse cx="64" cy="98" rx="2" ry="3.5" transform="rotate(-15 64 98)" fill="#FFF59D"/>
          <ellipse cx="136" cy="98" rx="2" ry="3.5" transform="rotate(15 136 98)" fill="#FFF59D"/>
          <ellipse cx="60" cy="128" rx="2" ry="3.5" transform="rotate(-20 60 128)" fill="#FFF59D"/>
          <ellipse cx="140" cy="128" rx="2" ry="3.5" transform="rotate(20 140 128)" fill="#FFF59D"/>
          <ellipse cx="80" cy="162" rx="2" ry="3" transform="rotate(-10 80 162)" fill="#FFF59D"/>
          <ellipse cx="120" cy="162" rx="2" ry="3" transform="rotate(10 120 162)" fill="#FFF59D"/>
          <ellipse cx="70" cy="85" rx="10" ry="16" transform="rotate(-25 70 85)" fill="#ffffff" opacity="0.35"/>
          <circle cx="82" cy="116" r="7" fill="#212121"/>
          <circle cx="80" cy="113" r="2.6" fill="#ffffff"/>
          <circle cx="84" cy="118" r="1.1" fill="#ffffff"/>
          <circle cx="118" cy="116" r="7" fill="#212121"/>
          <circle cx="116" cy="113" r="2.6" fill="#ffffff"/>
          <circle cx="120" cy="118" r="1.1" fill="#ffffff"/>
          <circle cx="72" cy="125" r="6.5" fill="#FF80AB" opacity="0.8"/>
          <circle cx="128" cy="125" r="6.5" fill="#FF80AB" opacity="0.8"/>
          <path d="M93 124 Q100 135 107 124" stroke="#7F0000" stroke-width="3" stroke-linecap="round" fill="none"/>
        </svg>